<svg width="282" height="280" viewBox="0 0 282 280" version="1.1" xmlns="http://www.w3.org/2000/svg" xmlns:xlink="http://www.w3.org/1999/xlink">
<title>logo</title>
<desc>Created using Figma</desc>
<g id="Canvas" transform="translate(-7027 2061)">
<g id="logo">
<g id="Subtract">
<use xlink:href="#path0_fill" transform="translate(7027 -2061)" fill="#E06767"/>
</g>
</g>
</g>
<defs>
<path id="path0_fill" fill-rule="evenodd" d="M 282 141C 282 184.208 262.565 222.877 231.959 248.741L 235.298 239.611L 217 232.139L 217 107L 217.672 107L 226 95.6139L 226 60.9604L 214.732 57L 208.364 60.9604L 208.364 67.396L 200.525 67.396L 200.525 60.9604L 154 60.9604L 154 67.396L 140.268 67.396L 140.268 57L 129 60.9604L 129 95.6139L 140.268 107L 140 107L 140 222.983L 97.4473 222.983L 94.3569 161.454L 85.5278 160.393L 76.4414 161.454L 73.3647 222.983L 68.8564 222.983L 51.0811 233.09L 59.6084 256.151C 23.5425 230.612 0 188.555 0 141C 0 63.1278 63.1279 0 141 0C 218.872 0 282 63.1278 282 141ZM 168.721 255.913L 166.032 279.785L 165.968 279.796L 168.721 255.913ZM 168.721 255.913L 143.189 251.349L 194.576 260.478L 168.721 255.913ZM 89.438 124.53L 89.438 153.466L 85.4722 153.466L 81.5063 153.466L 81.5063 124.53L 79.9424 120.676L 81.5063 119L 85.4722 119L 89.438 119L 91.002 120.676L 89.438 124.53ZM 101 161.454L 86.3101 159.164L 86.3101 155.198L 101 158.103L 101 161.454ZM 84.6899 159.164L 70 161.454L 70 158.103L 84.6899 155.198L 84.6899 159.164Z"/>
</defs>
</svg>
